<svg width="304" height="47" viewBox="0 0 304 47" fill="none" xmlns="http://www.w3.org/2000/svg">
<path d="M70.755 18.95L69.25 19.475C68.8533 19.615 68.585 19.4867 68.445 19.09C68.3983 18.95 68.235 18.53 67.955 17.83C66.7883 15.0067 64.8167 13.595 62.04 13.595C60.1267 13.595 58.54 14.33 57.28 15.8C56.0433 17.27 55.425 19.4167 55.425 22.24C55.425 25.0867 56.16 27.4667 57.63 29.38C59.1 31.2933 60.8267 32.25 62.81 32.25C64.9567 32.25 66.7417 31.2817 68.165 29.345C68.2583 29.2283 68.3517 29.0883 68.445 28.925C68.5617 28.7383 68.6433 28.5983 68.69 28.505C68.76 28.4117 68.83 28.3183 68.9 28.225C68.9933 28.1317 69.075 28.0617 69.145 28.015C69.2383 27.9683 69.3317 27.945 69.425 27.945C69.635 27.945 69.8917 28.05 70.195 28.26C70.5217 28.47 70.7083 28.6683 70.755 28.855C70.825 29.0883 70.6733 29.5433 70.3 30.22C68.62 33.09 65.8433 34.525 61.97 34.525C59.03 34.525 56.4867 33.4283 54.34 31.235C52.1933 29.0183 51.12 26.195 51.12 22.765C51.12 19.5917 52.1233 16.955 54.13 14.855C56.1367 12.755 58.5633 11.705 61.41 11.705C64.0467 11.705 66.1583 12.6617 67.745 14.575C68.235 14.575 68.5733 14.0033 68.76 12.86C68.83 12.4633 69.0517 12.265 69.425 12.265H70.37L70.755 18.95ZM85.5584 13.42L92.7684 29.625C93.2817 30.7683 93.7134 31.5033 94.0634 31.83C94.4367 32.1333 95.055 32.3783 95.9184 32.565V34H87.8334V32.565C88.7667 32.4017 89.3267 32.2267 89.5134 32.04C89.7 31.83 89.6767 31.515 89.4434 31.095L87.4134 26.44H79.2584L77.4384 30.92C77.275 31.34 77.345 31.6783 77.6484 31.935C77.9517 32.1683 78.535 32.3783 79.3984 32.565V34H72.6434V32.565C73.5067 32.3783 74.0784 32.18 74.3584 31.97C74.6384 31.76 74.9417 31.27 75.2684 30.5L83.0384 11.985L84.3334 12.335C84.94 12.545 85.3484 12.9067 85.5584 13.42ZM79.9584 24.725H86.6784L83.2134 16.71L79.9584 24.725ZM114.891 16.64H113.421L112.861 15.485C112.464 14.645 111.531 14.225 110.061 14.225H103.481V21.96H109.431C109.711 21.96 109.933 21.9367 110.096 21.89C110.283 21.82 110.446 21.6917 110.586 21.505C110.749 21.295 110.854 21.1317 110.901 21.015C110.948 20.8983 111.053 20.6417 111.216 20.245H112.091V25.6H111.216C110.866 24.76 110.574 24.2583 110.341 24.095C110.108 23.9317 109.804 23.85 109.431 23.85H103.481V31.025C103.481 31.4917 103.633 31.8417 103.936 32.075C104.263 32.285 104.788 32.4833 105.511 32.67V34H97.4961V32.67C98.2194 32.5067 98.7328 32.3083 99.0361 32.075C99.3628 31.8417 99.5261 31.4917 99.5261 31.025V15.31C99.5261 14.82 99.3744 14.47 99.0711 14.26C98.7678 14.05 98.2428 13.8517 97.4961 13.665V12.265H112.756C113.573 12.265 114.063 12.685 114.226 13.525L114.891 16.64ZM128.603 4.04L124.858 7.96C124.484 8.33333 124.414 8.68333 124.648 9.01C124.904 9.33667 125.231 9.37167 125.628 9.115L130.388 6.42C130.901 6.11666 131.216 5.74333 131.333 5.3C131.473 4.85666 131.368 4.39 131.018 3.9C130.318 3.03667 129.513 3.08333 128.603 4.04ZM133.853 29.73H135.603C135.276 30.4067 134.903 31.5617 134.483 33.195C134.343 33.7317 133.993 34 133.433 34H117.158V32.53C117.881 32.3667 118.394 32.18 118.698 31.97C119.024 31.7367 119.188 31.3867 119.188 30.92V15.31C119.188 14.82 119.036 14.47 118.733 14.26C118.429 14.05 117.904 13.8517 117.158 13.665V12.265H133.083C133.316 12.265 133.468 12.3117 133.538 12.405C133.631 12.475 133.678 12.6383 133.678 12.895V16.64H132.208L131.683 15.485C131.286 14.645 130.353 14.225 128.883 14.225H123.143V21.96H129.128C129.408 21.96 129.629 21.9367 129.793 21.89C129.979 21.82 130.143 21.6917 130.283 21.505C130.446 21.295 130.551 21.1317 130.598 21.015C130.644 20.8983 130.749 20.6417 130.913 20.245H131.788V25.6H130.913C130.563 24.76 130.271 24.2583 130.038 24.095C129.804 23.9317 129.501 23.85 129.128 23.85H123.143V32.075L130.598 32.005C131.251 32.005 131.718 31.935 131.998 31.795C132.278 31.6317 132.593 31.3283 132.943 30.885L133.853 29.73ZM159.872 12.265H166.277V13.735C165.6 13.805 165.064 13.9917 164.667 14.295C164.294 14.5983 163.85 15.1 163.337 15.8L157.527 23.71V31.27C157.527 31.4567 157.585 31.62 157.702 31.76C157.842 31.9 158.052 32.0167 158.332 32.11C158.635 32.18 158.892 32.2383 159.102 32.285C159.335 32.3083 159.662 32.355 160.082 32.425V34H151.437V32.425C151.88 32.355 152.207 32.3083 152.417 32.285C152.627 32.2383 152.884 32.18 153.187 32.11C153.49 32.0167 153.7 31.9 153.817 31.76C153.957 31.62 154.027 31.4567 154.027 31.27V24.655L148.287 16.675C148.17 16.5117 147.995 16.255 147.762 15.905C147.529 15.555 147.365 15.3333 147.272 15.24C147.202 15.1233 147.074 14.96 146.887 14.75C146.724 14.54 146.595 14.4 146.502 14.33C146.409 14.26 146.28 14.1783 146.117 14.085C145.954 13.9683 145.779 13.8867 145.592 13.84C145.429 13.7933 145.242 13.7583 145.032 13.735V12.265H152.802V13.735C152.265 13.8283 151.857 13.98 151.577 14.19C151.32 14.4 151.297 14.6333 151.507 14.89L156.652 22.03L161.552 15.24C161.855 14.8433 161.832 14.5167 161.482 14.26C161.155 14.0033 160.619 13.8283 159.872 13.735V12.265ZM193.452 29.66L192.612 33.195C192.472 33.7317 192.122 34 191.562 34H175.077V32.67C175.824 32.4833 176.361 32.285 176.687 32.075C177.014 31.8417 177.177 31.4917 177.177 31.025V15.31C177.177 14.82 177.014 14.47 176.687 14.26C176.361 14.05 175.824 13.8517 175.077 13.665V12.265H183.092V13.665C182.346 13.8517 181.809 14.05 181.482 14.26C181.179 14.47 181.027 14.82 181.027 15.31V30.675C181.027 31.1183 181.156 31.48 181.412 31.76C181.669 32.04 182.007 32.1683 182.427 32.145L188.307 31.865C188.914 31.8417 189.346 31.8183 189.602 31.795C189.882 31.7483 190.162 31.6433 190.442 31.48C190.722 31.3167 190.944 31.0833 191.107 30.78L191.702 29.66H193.452ZM212.261 29.73H214.011C213.684 30.4067 213.311 31.5617 212.891 33.195C212.751 33.7317 212.401 34 211.841 34H195.566V32.53C196.289 32.3667 196.802 32.18 197.106 31.97C197.432 31.7367 197.596 31.3867 197.596 30.92V15.31C197.596 14.82 197.444 14.47 197.141 14.26C196.837 14.05 196.312 13.8517 195.566 13.665V12.265H211.491C211.724 12.265 211.876 12.3117 211.946 12.405C212.039 12.475 212.086 12.6383 212.086 12.895V16.64H210.616L210.091 15.485C209.694 14.645 208.761 14.225 207.291 14.225H201.551V21.96H207.536C207.816 21.96 208.037 21.9367 208.201 21.89C208.387 21.82 208.551 21.6917 208.691 21.505C208.854 21.295 208.959 21.1317 209.006 21.015C209.052 20.8983 209.157 20.6417 209.321 20.245H210.196V25.6H209.321C208.971 24.76 208.679 24.2583 208.446 24.095C208.212 23.9317 207.909 23.85 207.536 23.85H201.551V32.075L209.006 32.005C209.659 32.005 210.126 31.935 210.406 31.795C210.686 31.6317 211.001 31.3283 211.351 30.885L212.261 29.73ZM234.213 13.105L234.493 16.465H233.338L232.813 15.31C232.439 14.5633 231.891 14.19 231.168 14.19H226.863V31.025C226.863 31.4917 227.026 31.8417 227.353 32.075C227.679 32.285 228.216 32.4833 228.963 32.67V34H220.913V32.67C221.636 32.4833 222.161 32.285 222.488 32.075C222.814 31.8417 222.978 31.4917 222.978 31.025V14.19H218.673C217.949 14.19 217.401 14.5633 217.028 15.31L216.503 16.465H215.348L215.628 13.105C215.674 12.545 215.943 12.265 216.433 12.265H233.408C233.898 12.265 234.166 12.545 234.213 13.105ZM257.896 32.495V34H253.801C251.678 33.1367 250.173 31.2583 249.286 28.365C248.82 26.8717 248.271 25.8333 247.641 25.25C247.011 24.6667 246.078 24.375 244.841 24.375H242.461V31.025C242.461 31.4917 242.625 31.8417 242.951 32.075C243.278 32.285 243.803 32.4833 244.526 32.67V34H236.581V32.67C237.305 32.5067 237.818 32.3083 238.121 32.075C238.448 31.8417 238.611 31.4917 238.611 31.025V15.45C238.611 14.54 237.935 13.9217 236.581 13.595V12.265H246.871C249.321 12.265 251.281 12.825 252.751 13.945C254.221 15.0417 254.956 16.465 254.956 18.215C254.956 19.615 254.431 20.8283 253.381 21.855C252.355 22.8583 250.838 23.5 248.831 23.78C250.255 23.9667 251.34 24.4217 252.086 25.145C252.856 25.8683 253.44 26.86 253.836 28.12C254.7 30.8967 255.785 32.355 257.091 32.495H257.896ZM242.461 22.59H246.906C248.33 22.59 249.345 22.1817 249.951 21.365C250.558 20.525 250.861 19.475 250.861 18.215C250.861 16.955 250.558 15.9167 249.951 15.1C249.345 14.26 248.423 13.84 247.186 13.84H242.461V22.59ZM272.385 13.42L279.595 29.625C280.108 30.7683 280.54 31.5033 280.89 31.83C281.263 32.1333 281.881 32.3783 282.745 32.565V34H274.66V32.565C275.593 32.4017 276.153 32.2267 276.34 32.04C276.526 31.83 276.503 31.515 276.27 31.095L274.24 26.44H266.085L264.265 30.92C264.101 31.34 264.171 31.6783 264.475 31.935C264.778 32.1683 265.361 32.3783 266.225 32.565V34H259.47V32.565C260.333 32.3783 260.905 32.18 261.185 31.97C261.465 31.76 261.768 31.27 262.095 30.5L269.865 11.985L271.16 12.335C271.766 12.545 272.175 12.9067 272.385 13.42ZM266.785 24.725H273.505L270.04 16.71L266.785 24.725ZM301.087 18.635L299.582 18.88C299.116 18.95 298.836 18.81 298.742 18.46L298.357 17.06C298.101 16.1033 297.447 15.275 296.397 14.575C295.347 13.875 294.216 13.525 293.002 13.525C291.672 13.525 290.622 13.9333 289.852 14.75C289.082 15.5433 288.756 16.465 288.872 17.515C288.942 18.0283 289.106 18.4717 289.362 18.845C289.619 19.195 290.016 19.51 290.552 19.79C291.089 20.07 291.544 20.2917 291.917 20.455C292.314 20.595 292.921 20.7933 293.737 21.05C293.761 21.05 294.076 21.1433 294.682 21.33C295.289 21.5167 295.697 21.645 295.907 21.715C296.117 21.785 296.526 21.9483 297.132 22.205C297.762 22.4383 298.229 22.6483 298.532 22.835C298.836 23.0217 299.232 23.29 299.722 23.64C300.212 23.99 300.586 24.3517 300.842 24.725C301.122 25.075 301.367 25.5067 301.577 26.02C301.811 26.51 301.962 27.035 302.032 27.595C302.266 29.7883 301.496 31.4917 299.722 32.705C297.949 33.9183 295.942 34.525 293.702 34.525C292.466 34.525 291.136 34.2683 289.712 33.755C288.312 33.2183 287.239 33.0783 286.492 33.335L284.672 27.84L286.107 27.35C286.597 27.1633 286.971 27.315 287.227 27.805C287.717 28.715 287.974 29.1933 287.997 29.24C289.071 31.3633 290.961 32.425 293.667 32.425C295.067 32.425 296.199 32.145 297.062 31.585C297.926 31.025 298.287 30.1267 298.147 28.89C298.077 28.1433 297.751 27.5017 297.167 26.965C296.607 26.4283 296.036 26.055 295.452 25.845C294.869 25.6117 294.041 25.3317 292.967 25.005C292.757 24.935 292.594 24.8883 292.477 24.865C291.801 24.655 291.241 24.4683 290.797 24.305C290.354 24.1417 289.771 23.885 289.047 23.535C288.347 23.1617 287.776 22.7767 287.332 22.38C286.912 21.96 286.504 21.4233 286.107 20.77C285.734 20.1167 285.501 19.3933 285.407 18.6C285.151 16.7333 285.722 15.1117 287.122 13.735C288.546 12.3583 290.506 11.67 293.002 11.67C294.309 11.67 295.429 11.845 296.362 12.195C297.319 12.545 298.136 12.9417 298.812 13.385C299.512 13.8283 300.119 14.0967 300.632 14.19L301.087 18.635Z" fill="#B4C6A6"/>
<path d="M0 21.6767C6.4773 21.1515 16.7184 24.8628 16.0182 37.6073C10.6788 38.1325 0 35.6816 0 21.6767Z" fill="#B4C6A6"/>
<path d="M35.9523 21.5898C36.4775 28.0671 32.7661 38.3083 20.0216 37.608C19.4964 32.2686 21.9473 21.5898 35.9523 21.5898Z" fill="#B4C6A6"/>
<path d="M17.7189 6.03394C22.6926 10.2164 27.362 20.0578 17.9003 28.6245C13.7355 25.2424 7.8684 15.9892 17.7189 6.03394Z" fill="#B4C6A6"/>
</svg>
