<svg width="503" height="47" viewBox="0 0 503 47" fill="none" xmlns="http://www.w3.org/2000/svg">
<path d="M113.499 25.325L115.434 24.65L114.939 16.055H113.724C113.229 16.055 112.959 16.325 112.869 16.82C112.689 17.99 112.329 19.025 111.564 19.025C109.854 16.955 107.424 15.335 103.419 15.335C96.1735 15.335 90.1885 21.32 90.1885 29.555C90.1885 38.645 96.8035 44.675 104.139 44.675C109.719 44.675 113.049 42.2 114.849 39.14C115.299 38.33 115.569 37.835 115.434 37.385C115.299 36.89 114.219 36.215 113.724 36.215C113.094 36.26 112.824 36.98 112.104 38.015C110.529 40.175 108.549 41.75 105.219 41.75C100.224 41.75 95.7235 36.395 95.7235 28.88C95.7235 21.23 99.6385 17.765 104.229 17.765C107.244 17.765 110.169 19.16 111.834 23.21C112.104 23.885 112.329 24.425 112.464 24.83C112.644 25.325 113.004 25.505 113.499 25.325ZM143.736 38.375L134.466 17.54C134.151 16.775 133.521 16.37 132.891 16.145L131.226 15.695L121.236 39.5C120.381 41.57 120.021 41.705 117.861 42.155V44H126.546V42.155C124.341 41.705 123.576 41.165 124.026 40.04L126.366 34.28H136.851L139.461 40.265C139.911 41.345 139.956 41.705 137.391 42.155V44H147.786V42.155C145.761 41.705 145.131 41.525 143.736 38.375ZM127.266 32.075L131.451 21.77L135.906 32.075H127.266ZM172.18 21.68L171.325 17.675C171.1 16.505 170.38 16.055 169.435 16.055H149.815V17.855C151.525 18.26 152.425 18.62 152.425 19.97V40.175C152.425 41.48 151.525 41.885 149.815 42.29V44H160.12V42.29C158.455 41.885 157.51 41.48 157.51 40.175V30.95H165.16C166.645 30.95 166.87 31.805 167.455 33.2H168.58V26.315H167.455C166.87 27.755 166.645 28.52 165.16 28.52H157.51V18.575H165.97C167.905 18.575 168.985 18.935 169.57 20.195L170.29 21.68H172.18ZM184.994 10.52L189.809 5.48C190.844 4.4 192.014 4.175 192.914 5.3C193.904 6.515 193.364 7.82 192.104 8.54L185.984 12.005C185.534 12.275 185.039 12.275 184.724 11.87C184.409 11.42 184.544 10.97 184.994 10.52ZM198.809 38.51H196.559L195.389 39.995C194.579 41.03 194.174 41.435 192.374 41.435L182.789 41.525V30.95H190.484C191.969 30.95 192.194 31.805 192.779 33.2H193.904V26.315H192.779C192.194 27.755 191.969 28.52 190.484 28.52H182.789V18.575H190.169C192.104 18.575 193.184 18.935 193.769 20.195L194.444 21.68H196.334V16.865C196.334 16.19 196.154 16.055 195.569 16.055H175.094V17.855C176.804 18.26 177.704 18.62 177.704 19.97V40.04C177.704 41.345 176.804 41.75 175.094 42.11V44H196.019C196.604 44 197.189 43.64 197.369 42.965C197.729 41.525 198.089 39.95 198.809 38.51ZM230.012 16.055V17.945C231.767 18.17 232.982 18.8 232.172 19.88L225.872 28.61L219.257 19.43C218.717 18.71 219.617 18.17 220.922 17.945V16.055H210.932V17.945C212.912 18.17 213.317 19.16 215.117 21.725L222.497 31.985V40.49C222.497 41.525 220.787 41.75 219.167 41.975V44H230.282V41.975C228.662 41.75 226.997 41.525 226.997 40.49V30.815L234.467 20.6C235.637 18.98 236.357 18.17 238.247 17.945V16.055H230.012ZM273.187 38.42H270.937L270.172 39.86C269.497 41.12 268.507 41.165 266.572 41.255L259.012 41.615C257.932 41.705 257.212 40.85 257.212 39.725V19.97C257.212 18.62 258.202 18.26 259.867 17.855V16.055H249.562V17.855C251.227 18.26 252.262 18.62 252.262 19.97V40.175C252.262 41.48 251.227 41.885 249.562 42.29V44H270.757C271.342 44 271.927 43.64 272.107 42.965L273.187 38.42ZM299.62 38.51H297.37L296.2 39.995C295.39 41.03 294.985 41.435 293.185 41.435L283.6 41.525V30.95H291.295C292.78 30.95 293.005 31.805 293.59 33.2H294.715V26.315H293.59C293.005 27.755 292.78 28.52 291.295 28.52H283.6V18.575H290.98C292.915 18.575 293.995 18.935 294.58 20.195L295.255 21.68H297.145V16.865C297.145 16.19 296.965 16.055 296.38 16.055H275.905V17.855C277.615 18.26 278.515 18.62 278.515 19.97V40.04C278.515 41.345 277.615 41.75 275.905 42.11V44H296.83C297.415 44 298 43.64 298.18 42.965C298.54 41.525 298.9 39.95 299.62 38.51ZM325.681 17.135C325.636 16.46 325.231 16.055 324.646 16.055H302.821C302.236 16.055 301.831 16.46 301.786 17.135L301.426 21.455H302.911L303.586 19.97C303.991 19.16 304.666 18.53 305.701 18.53H311.236V40.175C311.236 41.48 310.246 41.885 308.581 42.29V44H318.931V42.29C317.221 41.885 316.231 41.48 316.231 40.175V18.53H321.766C322.801 18.53 323.476 19.16 323.881 19.97L324.556 21.455H326.041L325.681 17.135ZM356.132 42.065H355.097C352.892 41.84 351.722 39.05 350.912 36.44C349.967 33.515 348.392 31.4 344.477 30.86C349.832 30.14 352.352 27.125 352.352 23.705C352.352 19.25 348.347 16.055 341.957 16.055H328.727V17.765C330.437 18.17 331.337 18.845 331.337 20.15V40.175C331.337 41.48 330.437 41.885 328.727 42.29V44H338.942V42.29C337.322 41.885 336.287 41.48 336.287 40.175V31.625H339.347C342.542 31.625 343.892 32.975 345.062 36.755C346.457 41.3 348.662 43.1 350.867 44H356.132V42.065ZM342.002 29.33H336.287V18.08H342.362C345.737 18.08 347.087 20.735 347.087 23.705C347.087 26.54 345.962 29.33 342.002 29.33ZM384.029 38.375L374.759 17.54C374.444 16.775 373.814 16.37 373.184 16.145L371.519 15.695L361.529 39.5C360.674 41.57 360.314 41.705 358.154 42.155V44H366.839V42.155C364.634 41.705 363.869 41.165 364.319 40.04L366.659 34.28H377.144L379.754 40.265C380.204 41.345 380.249 41.705 377.684 42.155V44H388.079V42.155C386.054 41.705 385.424 41.525 384.029 38.375ZM367.559 32.075L371.744 21.77L376.199 32.075H367.559ZM409.728 24.56L411.663 24.245L411.078 18.53C408.333 17.99 407.028 15.29 401.268 15.29C394.608 15.29 390.873 19.61 391.503 24.2C392.178 29.51 397.308 31.22 400.593 32.255C404.013 33.29 407.568 34.145 407.883 37.43C408.243 40.895 405.273 41.975 402.123 41.975C398.613 41.975 396.138 40.49 394.833 37.88C394.518 37.25 394.158 36.62 393.843 36.035C393.483 35.36 393.078 35.18 392.403 35.45L390.558 36.08L392.898 43.145C395.688 42.2 397.263 44.675 402.168 44.675C407.163 44.675 413.553 41.93 412.878 35.765C412.248 29.78 405.003 28.205 402.213 27.35C399.063 26.36 396.318 25.505 395.958 22.805C395.643 20.195 397.713 17.675 401.268 17.675C404.418 17.675 407.523 19.745 408.153 22.22L408.648 24.02C408.783 24.515 409.143 24.65 409.728 24.56Z" fill="#38470B"/>
<path d="M40 27.6767C46.4773 27.1515 56.7184 30.8628 56.0182 43.6073C50.6788 44.1325 40 41.6816 40 27.6767Z" fill="#38470B"/>
<path d="M75.9523 27.5898C76.4775 34.0671 72.7661 44.3083 60.0216 43.608C59.4964 38.2686 61.9473 27.5898 75.9523 27.5898Z" fill="#38470B"/>
<path d="M57.7189 12.0339C62.6926 16.2164 67.362 26.0578 57.9003 34.6245C53.7355 31.2424 47.8684 21.9892 57.7189 12.0339Z" fill="#38470B"/>
</svg>
